<?xml version="1.0" encoding="utf-8"?>
<!-- Generator: Adobe Illustrator 22.0.1, SVG Export Plug-In . SVG Version: 6.00 Build 0)  -->
<svg version="1.1" id="Layer_1" xmlns="http://www.w3.org/2000/svg" xmlns:xlink="http://www.w3.org/1999/xlink" x="0px" y="0px"
	 viewBox="0 0 2500.7 740.9" style="enable-background:new 0 0 2500.7 740.9;" xml:space="preserve">
<style type="text/css">
	.st0{fill:#FFFFFF;}
</style>
<path class="st0" d="M2412.9,0H87.6C39.2,0,0,39.2,0,87.6v565.8C0,701.8,39.2,741,87.6,741h2325.3l0,0c48.4,0,87.6-39.2,87.6-87.6
	V87.6C2500.5,39.2,2461.3,0,2412.9,0z M2484.1,653.4L2484.1,653.4c0,39.2-31.6,70.8-70.8,70.8H88c-39.2,0-71.2-31.6-71.2-70.8V87.6
	c0-39.2,32-71.2,71.2-71.2h2325.3c39.2,0,71.2,31.6,71.2,71.2L2484.1,653.4z"/>
<g id="bandlink-logo">
	<path id="Shape" class="st0" d="M778.6,213.8v113.6h0.9c3.5-5.5,7.7-10.4,12.5-14.6c4.9-4.3,10.4-8,16.2-11
		c5.9-3,12.2-5.3,18.6-6.9c6.3-1.6,12.8-2.3,19.2-2.4c15.8-0.4,31.6,2.8,46.1,9.2c12.7,5.8,23.8,14.5,32.7,25.4
		c8.9,11.2,15.5,23.9,19.5,37.6c4.4,14.9,6.6,30.5,6.5,46.1c0,14.7-1.9,29.3-5.8,43.5c-3.6,13.4-9.6,26-17.7,37.2
		c-8,10.8-18.2,19.6-30.1,25.8c-13.3,6.7-28,10.1-42.8,9.7c-7.6,0-15.2-0.5-22.7-1.5s-14.8-2.9-21.8-5.8
		c-6.8-2.8-13.1-6.5-18.8-11.2c-5.9-4.9-10.7-11.1-14.1-18.1h-1V521h-46.7V213.8H778.6z M901.4,410c0-9.9-1.3-19.7-3.9-29.3
		c-2.4-9-6.3-17.6-11.7-25.2c-5.1-7.2-11.8-13.3-19.5-17.6c-8.2-4.6-17.5-6.9-26.8-6.7c-18.2-1.2-35.8,6.9-46.9,21.5
		c-11.3,16.9-16.8,36.9-15.8,57.2c-0.1,10.5,1.3,21,4.1,31.2c2.4,9,6.6,17.4,12.3,24.7c5.3,6.8,12,12.4,19.7,16.4
		c8.2,4.2,17.4,6.2,26.6,6c10,0.3,19.8-2.1,28.5-6.9c7.6-4.5,14.2-10.6,19.2-17.9c5.1-7.6,8.8-16,10.8-25
		C900.4,429.3,901.4,419.7,901.4,410z M1164.1,471.6c-0.3,4.4,0.5,8.9,2.4,12.9c2.2,2.9,5.7,4.3,9.3,3.9h5.2c2.3,0,4.6-0.3,6.9-0.9
		v34c-1.7,0.6-4,1.2-6.7,1.9s-5.6,1.3-8.4,1.9c-2.9,0.6-5.8,1-8.6,1.3c-2.9,0.3-5.3,0.4-7.4,0.4c-8.8,0.3-17.4-1.8-25.1-6
		c-7.1-4.8-11.9-12.5-13-21.1c-10.2,9.7-22.6,16.8-36.1,20.7c-13.4,4.2-27.3,6.3-41.3,6.5c-9.8,0-19.6-1.3-29-4.1
		c-8.8-2.5-17.1-6.6-24.4-12c-7.1-5.3-12.9-12.3-16.9-20.2c-4.3-8.9-6.5-18.7-6.3-28.6c-0.5-11.7,2.1-23.3,7.6-33.6
		c4.8-8.3,11.6-15.3,19.9-20.2c8.6-5,17.9-8.6,27.7-10.6c10.2-2.2,20.5-3.8,30.9-5c8.9-1.7,17.4-2.9,25.5-3.7
		c7.2-0.6,14.4-1.8,21.4-3.7c5.5-1.3,10.6-4.1,14.7-8c3.9-4.4,5.9-10.2,5.4-16.1c0.2-5.5-1.4-11-4.5-15.5c-3-3.9-6.8-7.1-11.2-9.2
		c-4.7-2.2-9.8-3.7-14.9-4.3c-5.2-0.7-10.4-1.1-15.6-1.1c-12-0.5-23.8,2.5-34.2,8.6c-9,5.9-14.7,15.8-15.1,26.7H973
		c0.3-12.6,3.9-24.9,10.4-35.7c5.9-9.3,13.8-17.1,23.1-22.8c9.8-5.9,20.6-10,31.8-12c12-2.3,24.1-3.5,36.3-3.4
		c10.9,0,21.8,1.1,32.4,3.4c10.1,2.1,19.9,5.9,28.8,11.2c8.3,5,15.3,11.8,20.5,20c5.4,9,8.1,19.4,7.8,29.9L1164.1,471.6z
		 M1114.8,409.6c-8.4,5.2-17.9,8.2-27.7,8.8c-11,1-21.9,2.5-32.9,4.5c-5.1,0.9-10.2,2.1-15.1,3.7c-4.6,1.4-9,3.6-13,6.5
		c-3.8,2.8-6.9,6.5-8.9,10.8c-2.3,5.1-3.4,10.6-3.2,16.1c-0.2,5,1.5,9.9,4.8,13.8c3.2,3.7,7.1,6.7,11.5,8.8
		c4.7,2.2,9.6,3.7,14.7,4.5c4.8,0.8,9.6,1.3,14.5,1.3c6-0.1,11.9-0.8,17.7-2.2c6.3-1.4,12.4-3.9,17.9-7.3s10.3-7.8,14.1-13.1
		c3.9-5.8,5.8-12.6,5.6-19.6L1114.8,409.6z M1242.4,298.5v32.7l0.9,0.9c7.2-12,17.3-22,29.4-29.1c12.2-7.1,26.1-10.7,40.2-10.5
		c21-1.2,41.7,5.6,58,18.9c15,14.9,22.8,35.7,21.2,56.8V521h-49.3V381.2c0.7-13.6-3.3-27-11.3-38.1c-8.6-8.5-20.4-12.9-32.4-11.8
		c-7.7-0.1-15.4,1.4-22.5,4.5c-6.5,2.9-12.2,7.1-16.9,12.5c-4.7,5.5-8.4,11.9-10.8,18.7c-2.6,7.3-3.9,15-3.9,22.8v131.3h-49.3V298.5
		H1242.4z M1632.9,521.1h-46.7V491h-0.9c-6.1,12.4-16.4,22.2-29,27.8c-12.7,5.6-26.4,8.5-40.2,8.4c-15.8,0.4-31.6-2.8-46.1-9.3
		c-12.6-5.8-23.8-14.4-32.7-25.2c-8.9-11.1-15.5-23.9-19.5-37.7c-4.4-15.2-6.6-30.9-6.5-46.7c-0.4-17.7,2.4-35.4,8.2-52.1
		c4.7-13.4,12.2-25.7,21.8-36.1c8.7-9.2,19.3-16.3,31.1-20.9c11.4-4.4,23.5-6.7,35.7-6.7c7.1,0,14.2,0.7,21.2,1.9
		c7.1,1.3,14.1,3.4,20.8,6.2c6.6,2.8,12.8,6.5,18.4,11c5.6,4.4,10.3,9.7,14.1,15.7h0.9V213.8h49.3L1632.9,521.1L1632.9,521.1z
		 M1460.8,412.2c0,9.4,1.2,18.9,3.7,28c2.3,8.8,6.1,17.1,11.2,24.5c10.6,15.4,28.3,24.3,46.9,23.7c9.9,0.3,19.7-2.1,28.3-6.9
		c7.8-4.5,14.4-10.6,19.5-18.1c5.1-7.7,8.9-16.2,11.2-25.2c2.5-9.3,3.7-19,3.7-28.6c1.2-20.6-4.7-41-16.7-57.7
		c-11-13.7-27.7-21.4-45.2-20.6c-10.2-0.3-20.3,2.1-29.2,7.1c-7.8,4.6-14.4,10.9-19.5,18.5c-5.2,7.9-8.8,16.6-10.8,25.8
		C1461.9,392.4,1460.8,402.2,1460.8,412.2z"/>
	<path id="Shape_1_" class="st0" d="M1707.5,215.1h-49v308.4h49V215.1z M1812.1,213.8h-49.5v48.5h49.5V213.8z M1812.1,300h-49.5
		v223.5h49.5V300z M1913.2,300h-46.9v223.5h49.5V403.1c0-51.5,24.7-68,54.7-68c39.5,0,43.4,27.7,43.4,58.5v130h49.5v-149
		c0-50.7-24.3-80.6-76-80.6c-33.4,0-55.6,12.1-74.2,39V300z M2313.8,300H2253l-89.4,88.8V215.1h-48.2v308.4h48.2v-80.1l29.5-27.7
		l68.1,107.9h60.3L2227.8,382L2313.8,300z"/>
	<path class="st0" d="M324.8,177.3c-80.5,0-145.7,65.3-145.7,145.7v240.5h167.6c128.8,0,233.2-104.4,233.2-233.2v-153L324.8,177.3
		L324.8,177.3z M491.9,336.3c-0.3,1.9-1.2,3.6-2.5,5L440,390.4c-2,2-3,4.9-2.5,7.7l11.6,69.2c0.8,4.8-2.4,9.4-7.3,10.2
		c-1.9,0.3-3.9,0-5.6-0.9l-60.5-32.4c-2.6-1.4-5.7-1.4-8.4,0l-60.5,32.4c-4.3,2.3-9.7,0.7-12-3.6c-0.9-1.7-1.3-3.7-0.9-5.6
		l11.6-69.2c0.5-2.8-0.5-5.7-2.5-7.7l-49.4-49.1c-3.5-3.4-3.5-9,0-12.5c1.3-1.4,3.1-2.2,5-2.5l68-10.1c2.9-0.4,5.4-2.3,6.7-4.9
		l30.3-62.6c2.1-4.4,7.4-6.2,11.8-4.1c1.8,0.9,3.2,2.3,4.1,4.1l30.3,62.6c1.3,2.6,3.8,4.5,6.7,4.9l68,10.1
		C489.3,327,492.6,331.5,491.9,336.3z"/>
</g>
</svg>
